<svg width="16" height="16" viewBox="0 0 16 16" fill="none" xmlns="http://www.w3.org/2000/svg">
<path fill-rule="evenodd" clip-rule="evenodd" d="M13.2978 2.68315C12.9189 2.75055 12.3817 2.92686 11.5215 3.21358L5.03054 5.37724C4.20315 5.65304 3.61939 5.84795 3.19948 6.01179C2.99181 6.09282 2.84718 6.15754 2.74661 6.2106C2.66142 6.25554 2.6308 6.2803 2.62898 6.28156C2.22312 6.67446 2.22312 7.32551 2.62898 7.71841C2.6308 7.71968 2.66142 7.74444 2.74661 7.78938C2.84718 7.84243 2.99181 7.90716 3.19948 7.98819C3.61939 8.15203 4.20315 8.34694 5.03054 8.62274C5.04954 8.62907 5.06837 8.63533 5.08705 8.64154C5.36043 8.73247 5.60045 8.8123 5.82141 8.92916C6.35388 9.21076 6.78926 9.64614 7.07086 10.1786C7.18772 10.3996 7.26755 10.6396 7.35848 10.913C7.36469 10.9317 7.37095 10.9505 7.37728 10.9695C7.65308 11.7969 7.84799 12.3806 8.01183 12.8005C8.09285 13.0082 8.15758 13.1528 8.21064 13.2534C8.25558 13.3386 8.28034 13.3692 8.2816 13.371C8.6745 13.7769 9.32556 13.7769 9.71846 13.371C9.71972 13.3692 9.74448 13.3386 9.78942 13.2534C9.84247 13.1528 9.9072 13.0082 9.98823 12.8005C10.1521 12.3806 10.347 11.7969 10.6228 10.9695L12.7864 4.4785C13.0732 3.61832 13.2495 3.0811 13.3169 2.70219C13.3183 2.6943 13.3196 2.68663 13.3209 2.67916C13.3134 2.68042 13.3057 2.68175 13.2978 2.68315ZM13.5568 2.66004C13.5566 2.66022 13.5533 2.65995 13.5475 2.65868C13.5541 2.65922 13.557 2.65985 13.5568 2.66004ZM13.3413 2.45245C13.3401 2.44671 13.3398 2.44343 13.34 2.44322C13.3402 2.44302 13.3408 2.44588 13.3413 2.45245ZM12.9475 0.714063C13.4985 0.616046 14.253 0.586859 14.8331 1.16691C15.4132 1.74697 15.384 2.50148 15.286 3.05247C15.1896 3.5939 14.9632 4.27302 14.7077 5.03931L14.6838 5.11095L12.5201 11.6019L12.5107 11.6301C12.2465 12.423 12.0358 13.0549 11.8514 13.5275C11.6781 13.9717 11.4726 14.4321 11.1632 14.7541C9.98269 15.9825 8.01737 15.9825 6.8369 14.7541C6.52742 14.4321 6.32193 13.9717 6.14863 13.5275C5.96425 13.055 5.75362 12.423 5.48936 11.6303L5.47992 11.6019C5.35952 11.2407 5.3324 11.1694 5.30288 11.1136C5.20901 10.9361 5.06389 10.791 4.8864 10.6971C4.83058 10.6676 4.75929 10.6405 4.39809 10.5201L4.36976 10.5107C3.57697 10.2464 2.94506 10.0358 2.47252 9.85139C2.02833 9.67809 1.56797 9.4726 1.24592 9.16312C0.0174748 7.98265 0.0174748 6.01733 1.24592 4.83686C1.56797 4.52738 2.02833 4.32189 2.47252 4.14859C2.94508 3.96421 3.57702 3.75356 4.36984 3.48929L4.39809 3.47988L10.8891 1.31622C10.913 1.30823 10.9369 1.30027 10.9607 1.29234C11.727 1.03683 12.4061 0.81038 12.9475 0.714063Z" fill="white"/>
</svg>
